<svg width="18" height="17" viewBox="0 0 18 17" fill="none" xmlns="http://www.w3.org/2000/svg">
<g clip-path="url(#clip0_1196_1261)">
<path d="M6.10352e-05 5.4209V4.64696C0.0482662 4.36525 0.0796663 4.07956 0.146888 3.80271C0.648842 1.74227 2.34619 0.264712 4.44821 0.0825053C5.89702 -0.0426513 7.19237 0.373948 8.32143 1.29029C8.56467 1.48753 8.78314 1.71529 9.02019 1.93509C9.47349 1.41412 9.99712 0.984252 10.6123 0.678216C12.3322 -0.176653 14.0556 -0.208495 15.7039 0.813544C17.392 1.85991 18.0978 3.45643 17.9886 5.41294C17.9187 6.66274 17.411 7.76748 16.7246 8.79482C15.7928 10.1883 14.6151 11.3652 13.4108 12.5168C11.9819 13.8851 10.4341 15.1305 9.06308 16.566C9.04396 16.5836 9.02356 16.5997 9.00205 16.6142C8.95296 16.5678 8.90608 16.5258 8.86097 16.4816C8.43067 16.0583 8.01141 15.6232 7.56872 15.2127C6.36934 14.1014 5.14652 13.0148 3.95908 11.8906C2.96623 10.9503 2.04723 9.93936 1.28612 8.79482C0.813358 8.08457 0.417545 7.3354 0.211456 6.50087C0.123006 6.1453 0.0694942 5.78133 6.10352e-05 5.4209Z" fill="#868686"/>
</g>
<defs>
<clipPath id="clip0_1196_1261">
<rect width="18" height="16.5729" fill="white" transform="translate(0 0.0415039)"/>
</clipPath>
</defs>
</svg>
